<svg xmlns="http://www.w3.org/2000/svg" viewBox="0 0 800 600">
  <!-- Background -->
  <rect width="800" height="600" fill="#ffffff" opacity="0"/>
  
  <!-- Large Squares -->
  <rect x="650" y="50" width="100" height="100" fill="#e5e7eb" opacity="0.4"/>
  <rect x="580" y="200" width="80" height="80" fill="#d1d5db" opacity="0.5"/>
  <rect x="700" y="300" width="60" height="60" fill="#9ca3af" opacity="0.3"/>
  <rect x="620" y="400" width="120" height="120" fill="#f3f4f6" opacity="0.7"/>
  
  <!-- Medium Squares -->
  <rect x="600" y="150" width="40" height="40" fill="#6b7280" opacity="0.2"/>
  <rect x="700" y="180" width="50" height="50" fill="#e5e7eb" opacity="0.5"/>
  <rect x="630" y="320" width="45" height="45" fill="#9ca3af" opacity="0.4"/>
  <rect x="550" y="250" width="35" height="35" fill="#d1d5db" opacity="0.3"/>
  <rect x="700" y="400" width="55" height="55" fill="#f3f4f6" opacity="0.6"/>
  
  <!-- Small Squares -->
  <rect x="570" y="120" width="20" height="20" fill="#9ca3af" opacity="0.4"/>
  <rect x="690" y="250" width="15" height="15" fill="#6b7280" opacity="0.3"/>
  <rect x="610" y="290" width="25" height="25" fill="#e5e7eb" opacity="0.5"/>
  <rect x="590" y="350" width="30" height="30" fill="#f3f4f6" opacity="0.4"/>
  <rect x="650" y="480" width="18" height="18" fill="#d1d5db" opacity="0.6"/>
  <rect x="730" y="460" width="22" height="22" fill="#9ca3af" opacity="0.5"/>
  
  <!-- Extra Small Squares -->
  <rect x="620" y="100" width="10" height="10" fill="#6b7280" opacity="0.3"/>
  <rect x="670" y="170" width="12" height="12" fill="#9ca3af" opacity="0.4"/>
  <rect x="730" y="220" width="8" height="8" fill="#d1d5db" opacity="0.5"/>
  <rect x="590" y="380" width="15" height="15" fill="#f3f4f6" opacity="0.3"/>
  <rect x="680" y="360" width="12" height="12" fill="#e5e7eb" opacity="0.4"/>
  <rect x="710" y="500" width="10" height="10" fill="#9ca3af" opacity="0.5"/>
  <rect x="740" y="380" width="14" height="14" fill="#6b7280" opacity="0.3"/>
  <rect x="550" y="420" width="9" height="9" fill="#d1d5db" opacity="0.4"/>
  <rect x="600" y="500" width="13" height="13" fill="#e5e7eb" opacity="0.5"/>
  <rect x="750" y="130" width="11" height="11" fill="#f3f4f6" opacity="0.4"/>
</svg>